<svg version="1.1" id="Layer_1" xmlns="http://www.w3.org/2000/svg" xmlns:xlink="http://www.w3.org/1999/xlink" x="0px" y="0px"
	 width="100%" viewBox="0 0 512 512" enable-background="new 0 0 512 512" xml:space="preserve">
<path fill="#000000" opacity="1.000000" stroke="none" 
	d="
M513.000000,189.000000 
	C513.000000,296.943115 513.000000,404.886230 513.000000,513.000000 
	C348.976715,513.000000 184.953369,513.000000 20.461872,512.650391 
	C28.324263,504.751099 36.562454,497.096375 45.005756,489.674988 
	C59.842358,476.634186 74.834610,463.770660 89.704437,450.767456 
	C101.446526,440.499359 113.067307,430.092529 124.805984,419.820496 
	C139.916885,406.597565 155.081940,393.436523 170.243958,380.272156 
	C176.099594,375.188019 182.010818,370.167877 188.123505,364.924011 
	C189.982208,366.671539 191.580078,368.096466 193.092255,369.607147 
	C213.486313,389.981689 233.845810,410.390900 254.262497,430.742706 
	C265.485870,441.930481 281.900024,440.286224 290.553619,426.932922 
	C293.613251,422.211609 296.128113,417.089630 298.467377,411.957214 
	C309.889587,386.896729 316.876129,360.764191 316.994934,333.037872 
	C317.025665,325.872711 316.765594,318.694519 317.146454,311.549316 
	C317.273346,309.168915 318.400146,306.293335 320.057098,304.624146 
	C351.518341,272.930389 383.113708,241.369568 414.754852,209.855072 
	C416.062500,208.552643 418.035645,207.297241 419.786957,207.161942 
	C431.368347,206.267181 442.973083,205.670120 454.571869,205.005249 
	C467.003937,204.292618 479.455109,203.826019 491.863342,202.823639 
	C497.721344,202.350403 503.215393,200.386002 507.135651,195.413940 
	C508.924500,193.145126 511.035248,191.130112 513.000000,189.000000 
z"/>
<path fill="#000000" opacity="1.000000" stroke="none" 
	d="
M0.999992,494.000000 
	C1.000000,329.753326 1.000000,165.506653 1.000000,1.000000 
	C108.356522,1.000000 215.713242,1.000000 323.514099,1.345195 
	C322.713074,2.759590 321.567383,3.980950 320.205322,4.871406 
	C314.604187,8.533257 311.680725,14.137050 311.211700,20.321045 
	C309.492310,42.989265 308.297394,65.698334 307.030151,88.399010 
	C306.723877,93.885422 305.303558,98.412849 301.137268,102.534782 
	C271.170197,132.182663 241.365631,161.996307 211.715332,191.960999 
	C207.970871,195.745163 204.215775,197.155411 199.015167,197.118759 
	C187.719421,197.039124 176.385590,197.160553 165.127304,198.002060 
	C138.185776,200.015854 113.276115,208.846252 89.693283,221.701263 
	C73.493896,230.531586 71.075661,247.548721 84.134506,260.626099 
	C104.267326,280.787506 124.427795,300.921356 144.562714,321.080658 
	C146.058929,322.578674 147.444229,324.187500 149.097794,325.979675 
	C147.725830,327.515717 146.636703,328.729034 145.554138,329.948181 
	C139.931488,336.280151 134.265656,342.574463 128.698593,348.954926 
	C118.006599,361.209137 107.403755,373.541138 96.700844,385.785706 
	C88.952003,394.650787 81.037849,403.371643 73.310539,412.255219 
	C60.687202,426.767426 48.156708,441.360352 35.585857,455.918213 
	C27.669014,465.086365 19.841179,474.333832 11.788297,483.380890 
	C8.440653,487.141754 4.610639,490.473236 0.999992,494.000000 
z"/>
<path fill="#3A3A3A" opacity="1.000000" stroke="none" 
	d="
M0.999992,494.463165 
	C4.610639,490.473236 8.440653,487.141754 11.788297,483.380890 
	C19.841179,474.333832 27.669014,465.086365 35.585857,455.918213 
	C48.156708,441.360352 60.687202,426.767426 73.310539,412.255219 
	C81.037849,403.371643 88.952003,394.650787 96.700844,385.785706 
	C107.403755,373.541138 118.006599,361.209137 128.698593,348.954926 
	C134.265656,342.574463 139.931488,336.280151 145.554138,329.948181 
	C146.636703,328.729034 147.725830,327.515717 149.097794,325.979675 
	C147.444229,324.187500 146.058929,322.578674 144.562714,321.080658 
	C124.427795,300.921356 104.267326,280.787506 84.134506,260.626099 
	C71.075661,247.548721 73.493896,230.531586 89.693283,221.701263 
	C113.276115,208.846252 138.185776,200.015854 165.127304,198.002060 
	C176.385590,197.160553 187.719421,197.039124 199.015167,197.118759 
	C204.215775,197.155411 207.970871,195.745163 211.715332,191.960999 
	C241.365631,161.996307 271.170197,132.182663 301.137268,102.534782 
	C305.303558,98.412849 306.723877,93.885422 307.030151,88.399010 
	C308.297394,65.698334 309.492310,42.989265 311.211700,20.321045 
	C311.680725,14.137050 314.604187,8.533257 320.205322,4.871406 
	C321.567383,3.980950 322.713074,2.759590 323.979126,1.345195 
	C330.021149,1.000000 336.042297,1.000000 342.562103,1.344592 
	C345.453033,3.708222 348.006805,5.565566 350.213898,7.770016 
	C402.060944,59.555161 453.874023,111.374321 505.676575,163.204010 
	C508.195831,165.724579 510.562347,168.397842 513.000000,171.000000 
	C513.000000,176.688034 513.000000,182.376083 513.000000,188.532059 
	C511.035248,191.130112 508.924500,193.145126 507.135651,195.413940 
	C503.215393,200.386002 497.721344,202.350403 491.863342,202.823639 
	C479.455109,203.826019 467.003937,204.292618 454.571869,205.005249 
	C442.973083,205.670120 431.368347,206.267181 419.786957,207.161942 
	C418.035645,207.297241 416.062500,208.552643 414.754852,209.855072 
	C383.113708,241.369568 351.518341,272.930389 320.057098,304.624146 
	C318.400146,306.293335 317.273346,309.168915 317.146454,311.549316 
	C316.765594,318.694519 317.025665,325.872711 316.994934,333.037872 
	C316.876129,360.764191 309.889587,386.896729 298.467377,411.957214 
	C296.128113,417.089630 293.613251,422.211609 290.553619,426.932922 
	C281.900024,440.286224 265.485870,441.930481 254.262497,430.742706 
	C233.845810,410.390900 213.486313,389.981689 193.092255,369.607147 
	C191.580078,368.096466 189.982208,366.671539 188.123505,364.924011 
	C182.010818,370.167877 176.099594,375.188019 170.243958,380.272156 
	C155.081940,393.436523 139.916885,406.597565 124.805984,419.820496 
	C113.067307,430.092529 101.446526,440.499359 89.704437,450.767456 
	C74.834610,463.770660 59.842358,476.634186 45.005756,489.674988 
	C36.562454,497.096375 28.324263,504.751099 19.996859,512.650391 
	C15.975455,513.000000 11.950912,513.000000 7.461861,512.652954 
	C4.998233,510.537292 2.999111,508.768646 0.999995,507.000000 
	C1.000000,502.975464 1.000000,498.950897 0.999992,494.463165 
M271.248535,311.220123 
	C271.106750,309.561462 271.177277,307.851196 270.788483,306.252625 
	C268.430084,296.556061 271.538147,288.802734 278.498199,281.932068 
	C316.282166,244.633194 353.902130,207.167969 391.763153,169.947769 
	C394.566193,167.192200 398.632294,164.835068 402.438904,164.170944 
	C410.398743,162.782257 418.580719,162.685928 426.664825,161.982025 
	C430.356659,161.660583 434.032684,161.157349 437.061249,160.811356 
	C409.365173,133.118484 381.795746,105.552223 353.788452,77.548134 
	C353.199158,86.704063 352.420013,96.047997 352.051575,105.408096 
	C351.757629,112.876152 349.512146,119.158058 344.038605,124.556801 
	C306.109406,161.967636 268.312683,199.512833 230.479538,237.021057 
	C224.466782,242.982193 217.311813,244.878540 209.016571,243.569016 
	C203.952698,242.769608 198.772308,241.865494 193.700867,242.123016 
	C181.141739,242.760773 168.573822,243.698334 156.093689,245.210648 
	C150.246002,245.919250 144.592880,248.233475 139.123276,249.744934 
	C181.154160,291.775452 222.436386,333.057281 264.062256,374.682770 
	C271.697083,354.652100 273.161987,333.575104 271.248535,311.220123 
z"/>
<path fill="#000000" opacity="1.000000" stroke="none" 
	d="
M513.000000,170.531342 
	C510.562347,168.397842 508.195831,165.724579 505.676575,163.204010 
	C453.874023,111.374321 402.060944,59.555161 350.213898,7.770016 
	C348.006805,5.565566 345.453033,3.708222 343.030396,1.344592 
	C399.593658,1.000000 456.187347,1.000000 513.000000,1.000000 
	C513.000000,57.354038 513.000000,113.708359 513.000000,170.531342 
z"/>
<path fill="#000000" opacity="1.000000" stroke="none" 
	d="
M0.999995,507.499481 
	C2.999111,508.768646 4.998233,510.537292 6.998677,512.652954 
	C5.086776,513.000000 3.173552,513.000000 1.000000,513.000000 
	C1.000000,511.336578 1.000000,509.667755 0.999995,507.499481 
z"/>
<path fill="#000000" opacity="1.000000" stroke="none" 
	d="
M271.392120,311.654907 
	C273.161987,333.575104 271.697083,354.652100 264.062256,374.682770 
	C222.436386,333.057281 181.154160,291.775452 139.123276,249.744934 
	C144.592880,248.233475 150.246002,245.919250 156.093689,245.210648 
	C168.573822,243.698334 181.141739,242.760773 193.700867,242.123016 
	C198.772308,241.865494 203.952698,242.769608 209.016571,243.569016 
	C217.311813,244.878540 224.466782,242.982193 230.479538,237.021057 
	C268.312683,199.512833 306.109406,161.967636 344.038605,124.556801 
	C349.512146,119.158058 351.757629,112.876152 352.051575,105.408096 
	C352.420013,96.047997 353.199158,86.704063 353.788452,77.548134 
	C381.795746,105.552223 409.365173,133.118484 437.061249,160.811356 
	C434.032684,161.157349 430.356659,161.660583 426.664825,161.982025 
	C418.580719,162.685928 410.398743,162.782257 402.438904,164.170944 
	C398.632294,164.835068 394.566193,167.192200 391.763153,169.947769 
	C353.902130,207.167969 316.282166,244.633194 278.498199,281.932068 
	C271.538147,288.802734 268.430084,296.556061 270.788483,306.252625 
	C271.177277,307.851196 271.106750,309.561462 271.392120,311.654907 
z"/>
</svg>